<?xml version="1.0" encoding="UTF-8"?>
<svg width="20px" height="26px" viewBox="0 0 20 26" version="1.1" xmlns="http://www.w3.org/2000/svg" xmlns:xlink="http://www.w3.org/1999/xlink">
    <title>Group Copy</title>
    <defs>
        <polygon id="path-1" points="0 0.271061047 19.244842 0.271061047 19.244842 8.69605249 0 8.69605249"></polygon>
        <polygon id="path-3" points="0.370092336 0.269577627 17.3295682 0.269577627 17.3295682 17.1835987 0.370092336 17.1835987"></polygon>
    </defs>
    <g id="UI" stroke="none" stroke-width="1" fill="none" fill-rule="evenodd">
        <g id="Group-9" transform="translate(0.000000, 0.000000)">
            <g id="Group-3" transform="translate(0.000000, 16.294373)">
                <mask id="mask-2" fill="white">
                    <use xlink:href="#path-1"></use>
                </mask>
                <g id="Clip-2"></g>
                <path d="M0.982405473,8.6960939 C-0.0213674433,8.09026891 -0.1884081,7.58258508 0.177781715,6.3713492 C0.553145387,5.1265714 0.943798822,3.89711522 1.75492073,2.88133347 C2.9708391,1.35911018 4.48911253,0.472112831 6.34184952,0.288667533 C6.53755848,0.269204939 6.77302082,0.338773359 6.94273719,0.451407944 C7.59369883,0.88414008 8.26874185,1.22494252 9.0351412,1.33633481 C9.18154068,1.35745379 9.32411772,1.46511921 9.45331621,1.5578771 C10.2212445,2.10945529 11.1458929,1.88004514 11.6527486,1.04398181 C11.9684822,0.523046852 12.4095918,0.190940467 13.0311207,0.287839337 C15.6796898,0.700280684 17.5416006,2.23202822 18.5893316,4.90295862 C18.7758667,5.37917102 18.9058297,5.88188568 19.0606386,6.3725915 C19.4402069,7.57637362 19.2616989,8.0923394 18.2583083,8.6960939 L0.982405473,8.6960939 Z" id="Fill-1" fill="#8F8E9D" mask="url(#mask-2)"></path>
            </g>
            <g id="Group-6" transform="translate(0.764488, 0.144562)">
                <mask id="mask-4" fill="white">
                    <use xlink:href="#path-3"></use>
                </mask>
                <g id="Clip-5"></g>
                <path d="M9.72849371,0.269536217 C10.6103308,0.480311966 11.4860519,0.712206699 12.2463354,1.27372323 C14.0417357,2.59925009 15.0753237,4.39850476 15.1425987,6.7899192 C15.1548305,7.23134738 15.4304284,7.58498685 15.8489857,7.68022933 C16.7698116,7.89017688 17.3496759,8.69104191 17.3290347,9.72297347 C17.3072468,10.7776804 16.728147,11.5247127 15.7901201,11.7069157 C15.4728575,11.7686163 15.1399229,12.1914101 15.1166061,12.5475341 C15.0902312,12.9396847 15.0944359,13.3409454 15.0130179,13.7198448 C14.8161622,14.6374854 14.2420316,15.2474514 13.4576668,15.5609234 C12.5872971,15.9083514 11.6779384,16.1361051 10.7949547,16.4483348 C10.5694307,16.5282557 10.3477291,16.6951371 10.1822174,16.8818952 C9.89706335,17.2024068 9.46856775,17.2901955 9.11728545,17.0346972 C8.79390697,16.7994897 8.69146556,16.3270042 8.88105862,15.9443779 C9.0656825,15.5716899 9.51214357,15.3605001 9.84698937,15.5741745 C10.1397883,15.7613467 10.3901582,15.7025448 10.6707253,15.6201394 C11.3576179,15.4180597 12.0510087,15.2395835 12.7329321,15.0192835 C13.9266803,14.6329303 14.3280366,13.9865238 14.3467665,12.4121242 C14.347531,12.3504236 14.3544114,12.2626349 14.3219206,12.2299212 C13.8796643,11.7872507 14.026446,11.2062716 14.012303,10.6704291 C13.9912795,9.86749358 13.9782832,9.06331578 14.0031291,8.26079436 C14.0130674,7.94400959 14.140737,7.63260809 14.2015138,7.31540922 C14.2294176,7.16964682 14.2584681,7.009391 14.2320933,6.86776957 C13.7141526,4.06888296 11.4944613,2.12386589 8.82945567,2.12303769 C6.18126878,2.12262359 4.03420387,3.99972864 3.49447525,6.8068972 C3.45854431,6.99613987 3.54149127,7.21436938 3.57627548,7.41769137 C3.62061579,7.67815884 3.71044314,7.93655583 3.71273661,8.19619511 C3.72191047,9.28320167 3.70318051,10.3702082 3.7005048,11.4572148 C3.70012255,11.8853919 3.53958005,12.1872691 3.15122008,12.3135689 C2.78197231,12.4336573 2.50790331,12.2965909 2.29269991,11.9504052 C2.22351373,11.839427 2.08284791,11.7445986 1.96014757,11.7151977 C0.994981303,11.4845452 0.386830994,10.72509 0.3703945,9.70351088 C0.354340249,8.71381728 0.979309296,7.90135752 1.93721292,7.66863459 C2.34200939,7.57049343 2.5572128,7.26695979 2.55683055,6.84913517 C2.55300811,3.32350703 5.02192253,0.937475868 7.78975181,0.380100313 C7.91436338,0.355254449 8.0351525,0.306805014 8.15823509,0.269536217 L9.72849371,0.269536217 Z" id="Fill-4" fill="#8F8E9D" mask="url(#mask-4)"></path>
            </g>
            <path d="M11.5019533,15.3574357 C10.4159979,14.4994252 9.66603503,14.6658925 8.83771214,15.9098421 C8.15884668,15.7276391 7.61950031,15.2874532 7.12984566,14.7619632 C5.16587565,12.6529634 4.4220287,8.5384883 5.53779912,5.97315282 C6.37109119,4.05753668 8.05449405,2.99868877 10.0287847,3.14900625 C11.8012504,3.28400211 13.4066755,4.63230434 13.9100909,6.57732142 C14.6959847,9.61679881 14.0243819,12.3324518 12.1513859,14.7172406 C11.9659976,14.9536905 11.7255661,15.1400344 11.5019533,15.3574357" id="Fill-7" fill="#8F8E9D"></path>
        </g>
    </g>
</svg>