<?xml version="1.0" encoding="utf-8"?>
<!-- Generator: Adobe Illustrator 21.0.1, SVG Export Plug-In . SVG Version: 6.00 Build 0)  -->
<svg version="1.1" id="Layer_1" xmlns="http://www.w3.org/2000/svg" xmlns:xlink="http://www.w3.org/1999/xlink" x="0px" y="0px"
	 viewBox="0 0 562 208" style="enable-background:new 0 0 562 208;" xml:space="preserve">
<style type="text/css">
	.st0{filter:url(#filter-1);}
	.st1{fill:#F6F4F4;}
	.st2{fill:#0B0A2C;}
	.st3{fill:#3C3C3B;}
	.st4{fill:#575756;}
	.st5{fill:#FFFFFF;}
</style>
<filter  filterUnits="objectBoundingBox" height="112.6%" id="filter-1" width="104.4%" x="-2.2%" y="-6.3%">
	<feOffset  dx="0" dy="2" in="SourceAlpha" result="shadowOffsetOuter1"></feOffset>
	<feGaussianBlur  in="shadowOffsetOuter1" result="shadowBlurOuter1" stdDeviation="2"></feGaussianBlur>
	
		<feColorMatrix  in="shadowBlurOuter1" result="shadowMatrixOuter1" type="matrix" values="0 0 0 0 0   0 0 0 0 0   0 0 0 0 0  0 0 0 0.16 0">
		</feColorMatrix>
	<feMerge>
		<feMergeNode  in="shadowMatrixOuter1"></feMergeNode>
		<feMergeNode  in="SourceGraphic"></feMergeNode>
	</feMerge>
</filter>
<title>Group 16</title>
<g>
	<g id="UI">
		<g id="Event-Live---reception" transform="translate(-711.000000, -410.000000)">
			<g id="Group-16" transform="translate(720.000000, 419.000000)" class="st0">
				<path id="Rectangle_3_" class="st1" d="M61.9,51.5h420.2v98.9c0,19.2-15.6,34.8-34.8,34.8H96.7c-19.2,0-34.8-15.6-34.8-34.8
					V51.5L61.9,51.5z"/>
				<rect id="Rectangle_2_" x="109" y="185.2" class="st2" width="329.1" height="13.1"/>
			</g>
		</g>
	</g>
	<g>
		<path class="st3" d="M349.8,52.2L360,5.8c0.5-2.3,2.7-4.1,5-4.1h61.9c2.3,0,3.7,1.8,3.2,4.1l-10.2,46.5c-0.5,2.3-2.7,4.1-5,4.1
			H353C350.8,56.3,349.4,54.5,349.8,52.2z"/>
		<g>
			<path class="st4" d="M355.2,56.3h61.9c2.3,0,4.5-1.8,5-4.1l10.2-46.5c0.5-2.3-0.9-4.1-3.2-4.1h-61.9c-2.3,0-4.5,1.8-5,4.1
				L352,52.2C351.5,54.5,353,56.3,355.2,56.3z"/>
			<path class="st5" d="M389.5,29c-0.5,2.3,1,4.2,3.3,4.2c2.3,0,4.6-1.9,5.1-4.2c0.5-2.3-1-4.2-3.3-4.2
				C392.3,24.8,390,26.7,389.5,29z"/>
		</g>
		<polygon class="st4" points="311,60.4 327.8,60.4 413.3,60.4 413.3,56.3 311,56.3 		"/>
		<rect x="350" y="56.3" class="st3" width="63.3" height="4"/>
	</g>
</g>
</svg>
