<svg xmlns="http://www.w3.org/2000/svg" xmlns:xlink="http://www.w3.org/1999/xlink" viewBox="0 0 151.65 13.49"><defs><linearGradient id="linear-gradient" x1="75.89" y1="-0.12" x2="75.89" y2="4.32" gradientUnits="userSpaceOnUse"><stop offset="0" stop-color="#fff"/><stop offset="1"/></linearGradient><linearGradient id="linear-gradient-2" x1="135.46" y1="0.06" x2="141.73" y2="11.32" gradientUnits="userSpaceOnUse"><stop offset="0" stop-color="#29829f"/><stop offset="0.04" stop-color="#277d9d"/><stop offset="0.35" stop-color="#1c5b8f"/><stop offset="0.52" stop-color="#174e89"/><stop offset="0.54" stop-color="#174c86"/><stop offset="0.84" stop-color="#173065"/><stop offset="1" stop-color="#172559"/></linearGradient><linearGradient id="linear-gradient-3" x1="120.41" y1="3.17" x2="120.41" y2="9.43" gradientUnits="userSpaceOnUse"><stop offset="0" stop-color="#d7ffff"/><stop offset="0.15" stop-color="#98d1dc"/><stop offset="0.35" stop-color="#4899b0"/><stop offset="0.44" stop-color="#29829f"/><stop offset="0.46" stop-color="#287e9d"/><stop offset="0.67" stop-color="#1f6492"/><stop offset="0.86" stop-color="#19548b"/><stop offset="1" stop-color="#174e89"/></linearGradient><linearGradient id="linear-gradient-4" x1="113.5" y1="4.44" x2="113.5" y2="12.33" xlink:href="#linear-gradient-2"/><linearGradient id="linear-gradient-5" x1="118.07" y1="0.06" x2="124.34" y2="11.32" gradientTransform="matrix(-1, 0, 0, 1, 134.26, 0)" xlink:href="#linear-gradient-2"/><linearGradient id="linear-gradient-6" x1="103.02" y1="3.17" x2="103.02" y2="9.43" gradientTransform="matrix(-1, 0, 0, 1, 134.26, 0)" xlink:href="#linear-gradient-3"/><linearGradient id="linear-gradient-7" x1="96.12" y1="4.44" x2="96.12" y2="12.33" gradientTransform="matrix(-1, 0, 0, 1, 134.26, 0)" xlink:href="#linear-gradient-2"/><linearGradient id="linear-gradient-8" x1="76.27" y1="-13.1" x2="76.27" y2="12.7" xlink:href="#linear-gradient"/></defs><title>stage-new</title><g id="Layer_2" data-name="Layer 2"><g id="Stage"><polygon points="145.63 3.17 6.14 3.17 27.91 0 124.62 0 145.63 3.17" style="fill:url(#linear-gradient)"/><polygon points="151.65 11.07 131.53 11.07 145.39 3.21 145.39 3.21 151.65 11.07" style="fill:url(#linear-gradient-2)"/><polygon points="145.39 3.21 131.53 11.07 131.53 11.07 95.48 3.32 95.42 3.19 145.38 3.19 145.39 3.21" style="fill:url(#linear-gradient-3)"/><polygon points="131.53 11.07 99.01 11.07 95.48 3.32 131.53 11.07" style="fill:url(#linear-gradient-4)"/><polygon points="0 11.07 20.12 11.07 6.26 3.21 6.25 3.21 0 11.07" style="fill:url(#linear-gradient-5)"/><polygon points="6.26 3.21 20.12 11.07 20.12 11.07 56.17 3.32 56.23 3.19 6.27 3.19 6.26 3.21" style="fill:url(#linear-gradient-6)"/><polygon points="20.12 11.07 52.64 11.07 56.17 3.32 20.12 11.07" style="fill:url(#linear-gradient-7)"/><path d="M96.95,5.39V3.3H55.31V5.4ZM98,7.8V5.61H54.35V7.84Zm1.14,2.65V8.16L53.3,8.2v2.32Zm-47,.59v2.44l48.25-.1V11Z"/><g style="opacity:0.61"><path d="M96.95,5.39V3.3H55.31V5.4ZM98,7.8V5.61H54.35V7.84Zm1.14,2.65V8.16L53.3,8.2v2.32Zm-47,.59v2.44l48.25-.1V11Z" style="fill:url(#linear-gradient-8)"/></g></g></g></svg>